<?xml version="1.0" encoding="UTF-8" standalone="no"?>
<!DOCTYPE svg PUBLIC "-//W3C//DTD SVG 1.1//EN"
 "http://www.w3.org/Graphics/SVG/1.1/DTD/svg11.dtd">
<!-- Generated by graphviz version 2.47.0 (20210316.0004)
 -->
<!-- Title: dependencies Pages: 1 -->
<svg width="1350pt" height="284pt"
 viewBox="0.00 0.00 1350.00 284.00" xmlns="http://www.w3.org/2000/svg" xmlns:xlink="http://www.w3.org/1999/xlink">
<g id="graph0" class="graph" transform="scale(1 1) rotate(0) translate(4 280)">
<title>dependencies</title>
<polygon fill="white" stroke="transparent" points="-4,4 -4,-280 1346,-280 1346,4 -4,4"/>
<text text-anchor="start" x="650.01" y="-42.4" font-family="Times-12" font-weight="bold" font-size="14.00">Legend</text>
<polygon fill="#ffffb3" stroke="transparent" points="437,-10 437,-30 457,-30 457,-10 437,-10"/>
<text text-anchor="start" x="460.63" y="-15.4" font-family="Times-12" font-size="14.00"> &#160;Declarations</text>
<polygon fill="#8dd3c7" stroke="transparent" points="550,-10 550,-30 570,-30 570,-10 550,-10"/>
<text text-anchor="start" x="573.73" y="-15.4" font-family="Times-12" font-size="14.00"> &#160;Module</text>
<polygon fill="#80b1d3" stroke="transparent" points="636,-10 636,-30 656,-30 656,-10 636,-10"/>
<text text-anchor="start" x="659.78" y="-15.4" font-family="Times-12" font-size="14.00"> &#160;Bootstrap</text>
<polygon fill="#fdb462" stroke="transparent" points="733,-10 733,-30 753,-30 753,-10 733,-10"/>
<text text-anchor="start" x="756.67" y="-15.4" font-family="Times-12" font-size="14.00"> &#160;Providers</text>
<polygon fill="#fb8072" stroke="transparent" points="829,-10 829,-30 849,-30 849,-10 829,-10"/>
<text text-anchor="start" x="852.73" y="-15.4" font-family="Times-12" font-size="14.00"> &#160;Exports</text>
<g id="clust1" class="cluster">
<title>cluster_TemplatePlaygroundModule</title>
<polygon fill="none" stroke="black" stroke-dasharray="1,5" points="8,-70 8,-268 1334,-268 1334,-70 8,-70"/>
</g>
<g id="clust2" class="cluster">
<title>cluster_TemplatePlaygroundModule_declarations</title>
<polygon fill="none" stroke="black" points="1112,-78 1112,-130 1326,-130 1326,-78 1112,-78"/>
</g>
<g id="clust4" class="cluster">
<title>cluster_TemplatePlaygroundModule_imports</title>
<polygon fill="none" stroke="black" points="603,-78 603,-130 1104,-130 1104,-78 603,-78"/>
</g>
<g id="clust6" class="cluster">
<title>cluster_TemplatePlaygroundModule_bootstrap</title>
<polygon fill="none" stroke="black" points="623,-208 623,-260 841,-260 841,-208 623,-208"/>
</g>
<g id="clust7" class="cluster">
<title>cluster_TemplatePlaygroundModule_providers</title>
<polygon fill="none" stroke="black" points="16,-78 16,-130 595,-130 595,-78 16,-78"/>
</g>
<!-- TemplatePlaygroundComponent -->
<g id="node1" class="node">
<title>TemplatePlaygroundComponent</title>
<polygon fill="#ffffb3" stroke="black" points="1318.25,-122 1119.75,-122 1119.75,-86 1318.25,-86 1318.25,-122"/>
<text text-anchor="middle" x="1219" y="-99.8" font-family="Times,serif" font-size="14.00">TemplatePlaygroundComponent</text>
</g>
<!-- TemplatePlaygroundModule -->
<g id="node2" class="node">
<title>TemplatePlaygroundModule</title>
<polygon fill="#8dd3c7" stroke="black" points="820.47,-187 817.47,-191 796.47,-191 793.47,-187 643.53,-187 643.53,-151 820.47,-151 820.47,-187"/>
<text text-anchor="middle" x="732" y="-164.8" font-family="Times,serif" font-size="14.00">TemplatePlaygroundModule</text>
</g>
<!-- TemplatePlaygroundComponent&#45;&gt;TemplatePlaygroundModule -->
<g id="edge1" class="edge">
<title>TemplatePlaygroundComponent&#45;&gt;TemplatePlaygroundModule</title>
<path fill="none" stroke="black" d="M1219,-122.29C1219,-144.21 1219,-178 1219,-178 1219,-178 830.47,-178 830.47,-178"/>
<polygon fill="black" stroke="black" points="830.47,-174.5 820.47,-178 830.47,-181.5 830.47,-174.5"/>
</g>
<!-- TemplatePlaygroundComponent  -->
<g id="node7" class="node">
<title>TemplatePlaygroundComponent </title>
<polygon fill="#80b1d3" stroke="black" points="833.25,-252 630.75,-252 630.75,-216 833.25,-216 833.25,-252"/>
<text text-anchor="middle" x="732" y="-229.8" font-family="Times,serif" font-size="14.00">TemplatePlaygroundComponent </text>
</g>
<!-- TemplatePlaygroundModule&#45;&gt;TemplatePlaygroundComponent  -->
<g id="edge6" class="edge">
<title>TemplatePlaygroundModule&#45;&gt;TemplatePlaygroundComponent </title>
<path fill="none" stroke="black" stroke-dasharray="1,5" d="M732,-187.11C732,-187.11 732,-205.99 732,-205.99"/>
<polygon fill="black" stroke="black" points="728.5,-205.99 732,-215.99 735.5,-205.99 728.5,-205.99"/>
</g>
<!-- BrowserModule -->
<g id="node3" class="node">
<title>BrowserModule</title>
<polygon fill="#8dd3c7" stroke="black" points="1096.47,-122 1093.47,-126 1072.47,-126 1069.47,-122 989.53,-122 989.53,-86 1096.47,-86 1096.47,-122"/>
<text text-anchor="middle" x="1043" y="-99.8" font-family="Times,serif" font-size="14.00">BrowserModule</text>
</g>
<!-- BrowserModule&#45;&gt;TemplatePlaygroundModule -->
<g id="edge2" class="edge">
<title>BrowserModule&#45;&gt;TemplatePlaygroundModule</title>
<path fill="none" stroke="black" d="M1043,-122.11C1043,-141.34 1043,-169 1043,-169 1043,-169 830.7,-169 830.7,-169"/>
<polygon fill="black" stroke="black" points="830.7,-165.5 820.7,-169 830.7,-172.5 830.7,-165.5"/>
</g>
<!-- CommonModule -->
<g id="node4" class="node">
<title>CommonModule</title>
<polygon fill="#8dd3c7" stroke="black" points="971.67,-122 968.67,-126 947.67,-126 944.67,-122 860.33,-122 860.33,-86 971.67,-86 971.67,-122"/>
<text text-anchor="middle" x="916" y="-99.8" font-family="Times,serif" font-size="14.00">CommonModule</text>
</g>
<!-- CommonModule&#45;&gt;TemplatePlaygroundModule -->
<g id="edge3" class="edge">
<title>CommonModule&#45;&gt;TemplatePlaygroundModule</title>
<path fill="none" stroke="black" d="M916,-122.03C916,-138.4 916,-160 916,-160 916,-160 830.5,-160 830.5,-160"/>
<polygon fill="black" stroke="black" points="830.5,-156.5 820.5,-160 830.5,-163.5 830.5,-156.5"/>
</g>
<!-- FormsModule -->
<g id="node5" class="node">
<title>FormsModule</title>
<polygon fill="#8dd3c7" stroke="black" points="842.83,-122 839.83,-126 818.83,-126 815.83,-122 747.17,-122 747.17,-86 842.83,-86 842.83,-122"/>
<text text-anchor="middle" x="795" y="-99.8" font-family="Times,serif" font-size="14.00">FormsModule</text>
</g>
<!-- FormsModule&#45;&gt;TemplatePlaygroundModule -->
<g id="edge4" class="edge">
<title>FormsModule&#45;&gt;TemplatePlaygroundModule</title>
<path fill="none" stroke="black" d="M783.91,-122.11C783.91,-122.11 783.91,-140.99 783.91,-140.99"/>
<polygon fill="black" stroke="black" points="780.41,-140.99 783.91,-150.99 787.41,-140.99 780.41,-140.99"/>
</g>
<!-- HttpClientModule -->
<g id="node6" class="node">
<title>HttpClientModule</title>
<polygon fill="#8dd3c7" stroke="black" points="729.16,-122 726.16,-126 705.16,-126 702.16,-122 610.84,-122 610.84,-86 729.16,-86 729.16,-122"/>
<text text-anchor="middle" x="670" y="-99.8" font-family="Times,serif" font-size="14.00">HttpClientModule</text>
</g>
<!-- HttpClientModule&#45;&gt;TemplatePlaygroundModule -->
<g id="edge5" class="edge">
<title>HttpClientModule&#45;&gt;TemplatePlaygroundModule</title>
<path fill="none" stroke="black" d="M686.42,-122.11C686.42,-122.11 686.42,-140.99 686.42,-140.99"/>
<polygon fill="black" stroke="black" points="682.92,-140.99 686.42,-150.99 689.92,-140.99 682.92,-140.99"/>
</g>
<!-- TemplateEditorService -->
<g id="node8" class="node">
<title>TemplateEditorService</title>
<ellipse fill="#fdb462" stroke="black" cx="486" cy="-104" rx="100.7" ry="18"/>
<text text-anchor="middle" x="486" y="-99.8" font-family="Times,serif" font-size="14.00">TemplateEditorService</text>
</g>
<!-- TemplateEditorService&#45;&gt;TemplatePlaygroundModule -->
<g id="edge7" class="edge">
<title>TemplateEditorService&#45;&gt;TemplatePlaygroundModule</title>
<path fill="none" stroke="black" d="M486,-122.03C486,-138.4 486,-160 486,-160 486,-160 633.19,-160 633.19,-160"/>
<polygon fill="black" stroke="black" points="633.19,-163.5 643.19,-160 633.19,-156.5 633.19,-163.5"/>
</g>
<!-- ZipExportService -->
<g id="node9" class="node">
<title>ZipExportService</title>
<ellipse fill="#fdb462" stroke="black" cx="288" cy="-104" rx="79.87" ry="18"/>
<text text-anchor="middle" x="288" y="-99.8" font-family="Times,serif" font-size="14.00">ZipExportService</text>
</g>
<!-- ZipExportService&#45;&gt;TemplatePlaygroundModule -->
<g id="edge8" class="edge">
<title>ZipExportService&#45;&gt;TemplatePlaygroundModule</title>
<path fill="none" stroke="black" d="M288,-122.11C288,-141.34 288,-169 288,-169 288,-169 633.48,-169 633.48,-169"/>
<polygon fill="black" stroke="black" points="633.48,-172.5 643.48,-169 633.48,-165.5 633.48,-172.5"/>
</g>
<!-- HbsRenderService -->
<g id="node10" class="node">
<title>HbsRenderService</title>
<ellipse fill="#fdb462" stroke="black" cx="107" cy="-104" rx="83.37" ry="18"/>
<text text-anchor="middle" x="107" y="-99.8" font-family="Times,serif" font-size="14.00">HbsRenderService</text>
</g>
<!-- HbsRenderService&#45;&gt;TemplatePlaygroundModule -->
<g id="edge9" class="edge">
<title>HbsRenderService&#45;&gt;TemplatePlaygroundModule</title>
<path fill="none" stroke="black" d="M107,-122.29C107,-144.21 107,-178 107,-178 107,-178 633.45,-178 633.45,-178"/>
<polygon fill="black" stroke="black" points="633.45,-181.5 643.45,-178 633.45,-174.5 633.45,-181.5"/>
</g>
</g>
</svg>
